<svg width="23" height="23" viewBox="0 0 23 23" fill="none" xmlns="http://www.w3.org/2000/svg">
<path d="M10.4233 14.8932L8.2926 17.0208C7.84342 17.4693 7.12934 17.4693 6.66864 17.0323C6.54194 16.9058 6.41525 16.7908 6.28856 16.6642C5.10226 15.4682 4.03113 14.2146 3.07517 12.9036C2.13074 11.5925 1.37058 10.2815 0.817743 8.9819C0.27642 7.67085 0 6.41729 0 5.22123C0 4.4392 0.13821 3.69167 0.41463 3.00164C0.69105 2.3001 1.12872 1.65607 1.73914 1.08105C2.47626 0.356516 3.28249 0 4.13478 0C4.45727 0 4.77976 0.0690032 5.0677 0.207009C5.36716 0.345016 5.63206 0.552025 5.83938 0.851038L8.51144 4.61171C8.71875 4.89922 8.86848 5.16373 8.97214 5.41674C9.07579 5.65825 9.13338 5.89977 9.13338 6.11828C9.13338 6.39429 9.05276 6.6703 8.89151 6.93481C8.74179 7.19932 8.52295 7.47534 8.24653 7.75135L7.3712 8.65989C7.24451 8.78639 7.18692 8.9359 7.18692 9.11991C7.18692 9.21191 7.19844 9.29242 7.22148 9.38442C7.25603 9.47643 7.29058 9.54543 7.31362 9.61443C7.52093 9.99395 7.87797 10.4885 8.38474 11.0865C8.90303 11.6845 9.45587 12.2941 10.0548 12.9036C10.17 13.0186 10.2967 13.1336 10.4118 13.2486C10.8725 13.6971 10.884 14.4331 10.4233 14.8932Z" fill="#0E386D"/>
<path d="M23 18.7793C23 19.1013 22.9424 19.4348 22.8272 19.7569C22.7927 19.8489 22.7581 19.9409 22.7121 20.0329C22.5163 20.4469 22.2629 20.8379 21.9289 21.2059C21.3645 21.8269 20.7426 22.2755 20.04 22.563C20.0285 22.563 20.017 22.5745 20.0054 22.5745C19.3259 22.8505 18.5888 23 17.7941 23C16.6193 23 15.3639 22.724 14.0394 22.1605C12.7149 21.5969 11.3904 20.8379 10.0774 19.8834C9.62817 19.5498 9.179 19.2163 8.75286 18.8598L12.5191 15.0991C12.8416 15.3407 13.1295 15.5247 13.3714 15.6512C13.429 15.6742 13.4981 15.7087 13.5787 15.7432C13.6708 15.7777 13.763 15.7892 13.8666 15.7892C14.0624 15.7892 14.2121 15.7202 14.3388 15.5937L15.2142 14.7311C15.5021 14.4436 15.7785 14.2251 16.0434 14.0871C16.3083 13.9261 16.5732 13.8456 16.8612 13.8456C17.08 13.8456 17.3103 13.8916 17.5637 13.9951C17.8171 14.0986 18.082 14.2481 18.37 14.4436L22.1823 17.1462C22.4817 17.3532 22.689 17.5948 22.8157 17.8823C22.9309 18.1698 23 18.4573 23 18.7793Z" fill="#0E386D"/>
</svg>
