<svg width="40" height="40" viewBox="0 0 40 40" fill="none" xmlns="http://www.w3.org/2000/svg">
<path d="M18.1276 25.9012L14.4219 29.6013C13.6407 30.3814 12.3988 30.3814 11.5976 29.6213C11.3773 29.4013 11.157 29.2013 10.9366 28.9813C8.87349 26.9012 7.01066 24.7211 5.34813 22.441C3.70563 20.1609 2.38362 17.8808 1.42216 15.6207C0.480731 13.3406 0 11.1605 0 9.08041C0 7.72035 0.240365 6.42029 0.721096 5.22023C1.20183 4.00018 1.96298 2.88013 3.0246 1.88008C4.30655 0.620028 5.70868 0 7.19093 0C7.75178 0 8.31264 0.120006 8.8134 0.360016C9.33419 0.600027 9.79489 0.960043 10.1554 1.48007L14.8025 8.02036C15.163 8.52038 15.4234 8.9804 15.6037 9.42042C15.784 9.84044 15.8841 10.2605 15.8841 10.6405C15.8841 11.1205 15.7439 11.6005 15.4635 12.0605C15.2031 12.5206 14.8225 13.0006 14.3418 13.4806L12.8195 15.0607C12.5991 15.2807 12.499 15.5407 12.499 15.8607C12.499 16.0207 12.519 16.1607 12.5591 16.3207C12.6192 16.4807 12.6793 16.6007 12.7193 16.7208C13.0799 17.3808 13.7008 18.2408 14.5822 19.2809C15.4835 20.3209 16.445 21.381 17.4866 22.441C17.6869 22.641 17.9072 22.841 18.1075 23.041C18.9087 23.8211 18.9288 25.1011 18.1276 25.9012Z" fill="#0E386D"/>
<path d="M40 32.6597C40 33.2197 39.8998 33.7997 39.6995 34.3597C39.6394 34.5198 39.5794 34.6798 39.4992 34.8398C39.1587 35.5598 38.718 36.2398 38.1372 36.8799C37.1557 37.9599 36.074 38.7399 34.8522 39.24C34.8321 39.24 34.8121 39.26 34.7921 39.26C33.6103 39.74 32.3283 40 30.9462 40C28.9031 40 26.7198 39.52 24.4163 38.5399C22.1128 37.5599 19.8093 36.2398 17.5258 34.5798C16.7447 33.9997 15.9635 33.4197 15.2224 32.7997L21.7723 26.2594C22.3331 26.6794 22.8339 26.9994 23.2545 27.2194C23.3547 27.2594 23.4749 27.3194 23.6151 27.3794C23.7753 27.4394 23.9356 27.4594 24.1159 27.4594C24.4564 27.4594 24.7168 27.3394 24.9371 27.1194L26.4594 25.6194C26.9602 25.1193 27.4409 24.7393 27.9016 24.4993C28.3623 24.2193 28.823 24.0793 29.3238 24.0793C29.7043 24.0793 30.105 24.1593 30.5456 24.3393C30.9863 24.5193 31.447 24.7793 31.9478 25.1193L38.5778 29.8195C39.0986 30.1796 39.4592 30.5996 39.6795 31.0996C39.8798 31.5996 40 32.0996 40 32.6597Z" fill="#0E386D"/>
</svg>
