<svg width="26" height="26" viewBox="0 0 26 26" fill="none" xmlns="http://www.w3.org/2000/svg">
<path d="M15 6.96299C15.0008 6.89242 14.9875 6.82241 14.9608 6.75707C14.9342 6.69173 14.8947 6.63239 14.8448 6.58253C14.7948 6.53268 14.7355 6.49333 14.6701 6.46679C14.6047 6.44025 14.5346 6.42705 14.464 6.42799H13.393C13.3224 6.42705 13.2524 6.44025 13.187 6.46679C13.1216 6.49333 13.0622 6.53268 13.0122 6.58253C12.9623 6.63239 12.9228 6.69173 12.8961 6.75707C12.8695 6.82241 12.8563 6.89242 12.8571 6.96299V12.855H9.10806C9.03749 12.8541 8.96739 12.8672 8.902 12.8938C8.83661 12.9203 8.77727 12.9597 8.72732 13.0095C8.67737 13.0594 8.63789 13.1187 8.61123 13.1841C8.58457 13.2494 8.57124 13.3194 8.57205 13.39V14.461C8.5711 14.5316 8.58426 14.6018 8.61086 14.6672C8.63747 14.7327 8.67699 14.7921 8.72695 14.8421C8.77691 14.8921 8.8363 14.9315 8.90176 14.9581C8.96721 14.9847 9.03741 14.9979 9.10806 14.997H14.464C14.5347 14.9979 14.6047 14.9847 14.6702 14.9581C14.7356 14.9315 14.7952 14.8921 14.8451 14.8421C14.8951 14.7921 14.9345 14.7327 14.9611 14.6672C14.9877 14.6018 15.001 14.5316 15 14.461V6.96299ZM21.963 12.855C21.963 14.656 21.4289 16.4165 20.4284 17.914C19.4278 19.4115 18.0056 20.5786 16.3417 21.2678C14.6778 21.957 12.847 22.1374 11.0806 21.786C9.3142 21.4347 7.69161 20.5674 6.41812 19.2939C5.14462 18.0204 4.27741 16.3979 3.92605 14.6315C3.57469 12.8651 3.75503 11.0342 4.44424 9.37028C5.13345 7.70637 6.30052 6.28421 7.798 5.28363C9.29547 4.28305 11.0561 3.74899 12.8571 3.74899C15.2711 3.7519 17.5853 4.71228 19.292 6.41942C20.9988 8.12655 21.9587 10.441 21.9611 12.855H21.963ZM25.713 12.855C25.7132 10.3123 24.9594 7.8266 23.5469 5.71231C22.1344 3.59802 20.1266 1.95008 17.7775 0.976882C15.4284 0.00368822 12.8434 -0.251044 10.3495 0.244895C7.85563 0.740833 5.56491 1.96517 3.76687 3.76308C1.96883 5.56098 0.744204 7.85169 0.248071 10.3455C-0.248061 12.8394 0.00650567 15.4243 0.979517 17.7735C1.95253 20.1227 3.60032 22.1306 5.7145 23.5433C7.82868 24.956 10.3144 25.71 12.8571 25.71C16.2659 25.7087 19.5348 24.3538 21.9451 21.9433C24.3554 19.5328 25.71 16.2639 25.7111 12.855H25.713Z" fill="#0E445B"/>
</svg>
