<svg width="64" height="64" viewBox="0 0 64 64" fill="none" xmlns="http://www.w3.org/2000/svg">
<path d="M39.7088 63.24H26.4726V41.9149H23.6782C21.9722 41.9149 20.5898 40.5324 20.5898 38.8264V33.2378C20.5898 31.5318 21.9722 30.1493 23.6782 30.1493H26.4726V22.7958C26.4726 16.7071 31.4141 11.7656 37.5028 11.7656H45.4446C47.1506 11.7656 48.533 13.148 48.533 14.854V21.9134C48.533 23.6194 47.1506 25.0019 45.4446 25.0019H39.7088V30.1493H45.2387C46.1799 30.1493 47.0329 30.5611 47.6212 31.267C48.2095 31.973 48.4448 32.9142 48.2683 33.826L47.1506 39.4147C46.8564 40.856 45.5916 41.8855 44.1209 41.8855H39.7088V63.24ZM30.8847 58.8279H35.2967V37.5028H43.062L43.6503 34.5614H35.3262V23.6782C35.3262 21.9722 36.7086 20.5898 38.4146 20.5898H44.1503V16.1777H37.5028C33.8555 16.1777 30.8847 19.1485 30.8847 22.7958V34.5614H25.0019V37.5028H30.8847V58.8279Z" fill="#F6F6F6"/>
<path d="M40.4442 63.24H22.7958C6.82404 63.24 0 56.416 0 40.4442V22.7958C0 6.82404 6.82404 0 22.7958 0H40.4442C56.416 0 63.24 6.82404 63.24 22.7958V40.4442C63.24 56.416 56.416 63.24 40.4442 63.24ZM22.7958 4.41209C9.23598 4.41209 4.41209 9.23598 4.41209 22.7958V40.4442C4.41209 54.004 9.23598 58.8279 22.7958 58.8279H40.4442C54.004 58.8279 58.8279 54.004 58.8279 40.4442V22.7958C58.8279 9.23598 54.004 4.41209 40.4442 4.41209H22.7958Z" fill="#F6F6F6"/>
</svg>
