<svg width="112" height="108" viewBox="0 0 112 108" fill="none" xmlns="http://www.w3.org/2000/svg">
<path d="M66.3553 106.211C64.0849 106.211 61.9503 105.327 60.3449 103.721L24.9896 68.366C23.3841 66.7605 22.5 64.626 22.5 62.3555C22.5 60.0847 23.3841 57.9504 24.9895 56.3452L60.345 20.9897C61.9504 19.384 64.085 18.5 66.3553 18.5C68.6257 18.5 70.7603 19.384 72.3657 20.9897L107.721 56.345C109.327 57.9504 110.211 60.0847 110.211 62.3555C110.211 64.626 109.327 66.7605 107.721 68.3657L72.3657 103.722C70.7604 105.327 68.6258 106.211 66.3553 106.211Z" fill="#0E445B"/>
<path d="M66.3554 20C64.4857 20 62.7279 20.728 61.4057 22.0505L26.0501 57.4058C24.7281 58.7278 24 60.4856 24 62.3555C24 64.2253 24.7281 65.9832 26.0502 67.3052L61.4055 102.661C62.7277 103.983 64.4855 104.711 66.3554 104.711C68.2252 104.711 69.983 103.983 71.3051 102.661L106.66 67.3052C107.983 65.9832 108.711 64.2253 108.711 62.3555C108.711 60.4856 107.983 58.7278 106.66 57.4058L71.3049 22.0503C69.9829 20.728 68.2251 20 66.3554 20ZM66.3554 17C68.9146 17 71.4738 17.9763 73.4264 19.9292L108.782 55.2844C112.687 59.1892 112.687 65.5215 108.782 69.4265L73.4264 104.782C71.4738 106.735 68.9146 107.711 66.3554 107.711C63.7962 107.711 61.237 106.735 59.2843 104.782L23.9289 69.4265C20.0237 65.5215 20.0237 59.1892 23.9289 55.2844L59.2843 19.9292C61.237 17.9763 63.7962 17 66.3554 17Z" fill="#0E445B"/>
<path d="M65.9997 58.3428C71.4678 58.3428 75.9006 53.7889 75.9006 48.1714C75.9006 42.5539 71.4678 38 65.9997 38C60.5315 38 56.0987 42.5539 56.0987 48.1714C56.0987 53.7889 60.5315 58.3428 65.9997 58.3428Z" fill="white"/>
<path d="M66 60.7258C56.0792 60.7258 48 67.561 48 75.9829C48 76.5525 48.4356 77 48.9901 77H83.0099C83.5644 77 84 76.5525 84 75.9829C84 67.561 75.9208 60.7258 66 60.7258Z" fill="white"/>
</svg>
